<mxfile host="app.diagrams.net" modified="2023-06-17T20:05:09.686Z" agent="Mozilla/5.0 (Windows NT 10.0; Win64; x64) AppleWebKit/537.36 (KHTML, like Gecko) Chrome/114.0.0.0 Safari/537.36" etag="bF0ata-aoarz7s7UsbxA" version="21.4.0" type="github">
  <diagram name="Page-1" id="VL4QcFsOwzo_dbyu7XMH">
    <mxGraphModel dx="1434" dy="764" grid="1" gridSize="10" guides="1" tooltips="1" connect="1" arrows="1" fold="1" page="1" pageScale="1" pageWidth="827" pageHeight="1169" math="0" shadow="0">
      <root>
        <mxCell id="0" />
        <mxCell id="1" parent="0" />
        <mxCell id="s7sYaWTFiz82RCW_50bO-1" value="&lt;u&gt;:Client&lt;/u&gt;" style="rounded=0;whiteSpace=wrap;html=1;" vertex="1" parent="1">
          <mxGeometry x="110" y="160" width="120" height="60" as="geometry" />
        </mxCell>
        <mxCell id="s7sYaWTFiz82RCW_50bO-2" value="&lt;u&gt;:Site Web&lt;/u&gt;" style="rounded=0;whiteSpace=wrap;html=1;" vertex="1" parent="1">
          <mxGeometry x="370" y="160" width="120" height="60" as="geometry" />
        </mxCell>
        <mxCell id="s7sYaWTFiz82RCW_50bO-3" value="&lt;u&gt;:Système de base de données&lt;/u&gt;" style="rounded=0;whiteSpace=wrap;html=1;" vertex="1" parent="1">
          <mxGeometry x="630" y="160" width="120" height="60" as="geometry" />
        </mxCell>
        <mxCell id="s7sYaWTFiz82RCW_50bO-4" value="Poser une question sur un produit" style="rounded=1;whiteSpace=wrap;html=1;" vertex="1" parent="1">
          <mxGeometry x="30" y="90" width="170" height="30" as="geometry" />
        </mxCell>
        <mxCell id="s7sYaWTFiz82RCW_50bO-5" value="" style="endArrow=none;dashed=1;html=1;dashPattern=1 3;strokeWidth=2;rounded=0;entryX=0.408;entryY=0.993;entryDx=0;entryDy=0;entryPerimeter=0;" edge="1" parent="1" source="s7sYaWTFiz82RCW_50bO-9" target="s7sYaWTFiz82RCW_50bO-1">
          <mxGeometry width="50" height="50" relative="1" as="geometry">
            <mxPoint x="160" y="761.4285714285714" as="sourcePoint" />
            <mxPoint x="480" y="350" as="targetPoint" />
          </mxGeometry>
        </mxCell>
        <mxCell id="s7sYaWTFiz82RCW_50bO-6" value="" style="endArrow=none;dashed=1;html=1;dashPattern=1 3;strokeWidth=2;rounded=0;entryX=0.408;entryY=0.993;entryDx=0;entryDy=0;entryPerimeter=0;" edge="1" parent="1" source="s7sYaWTFiz82RCW_50bO-12">
          <mxGeometry width="50" height="50" relative="1" as="geometry">
            <mxPoint x="430.5" y="761.4285714285714" as="sourcePoint" />
            <mxPoint x="429.5" y="220" as="targetPoint" />
          </mxGeometry>
        </mxCell>
        <mxCell id="s7sYaWTFiz82RCW_50bO-7" value="" style="endArrow=none;dashed=1;html=1;dashPattern=1 3;strokeWidth=2;rounded=0;entryX=0.408;entryY=0.993;entryDx=0;entryDy=0;entryPerimeter=0;" edge="1" parent="1" source="s7sYaWTFiz82RCW_50bO-19">
          <mxGeometry width="50" height="50" relative="1" as="geometry">
            <mxPoint x="690.5" y="761.4285714285714" as="sourcePoint" />
            <mxPoint x="689.5" y="220" as="targetPoint" />
          </mxGeometry>
        </mxCell>
        <mxCell id="s7sYaWTFiz82RCW_50bO-8" value="" style="endArrow=none;dashed=1;html=1;dashPattern=1 3;strokeWidth=2;rounded=0;entryX=0.408;entryY=0.993;entryDx=0;entryDy=0;entryPerimeter=0;" edge="1" parent="1" target="s7sYaWTFiz82RCW_50bO-9">
          <mxGeometry width="50" height="50" relative="1" as="geometry">
            <mxPoint x="160" y="761.4285714285714" as="sourcePoint" />
            <mxPoint x="159" y="220" as="targetPoint" />
          </mxGeometry>
        </mxCell>
        <mxCell id="s7sYaWTFiz82RCW_50bO-9" value="" style="rounded=0;whiteSpace=wrap;html=1;" vertex="1" parent="1">
          <mxGeometry x="160" y="230" width="10" height="460" as="geometry" />
        </mxCell>
        <mxCell id="s7sYaWTFiz82RCW_50bO-10" value="1)Clique sur le bouton question" style="endArrow=classic;html=1;rounded=0;exitX=0.971;exitY=0.19;exitDx=0;exitDy=0;exitPerimeter=0;" edge="1" parent="1" source="s7sYaWTFiz82RCW_50bO-9">
          <mxGeometry x="0.2002" y="9" width="50" height="50" relative="1" as="geometry">
            <mxPoint x="430" y="380" as="sourcePoint" />
            <mxPoint x="420" y="320" as="targetPoint" />
            <mxPoint as="offset" />
          </mxGeometry>
        </mxCell>
        <mxCell id="s7sYaWTFiz82RCW_50bO-11" value="" style="endArrow=none;dashed=1;html=1;dashPattern=1 3;strokeWidth=2;rounded=0;entryX=0.408;entryY=0.993;entryDx=0;entryDy=0;entryPerimeter=0;" edge="1" parent="1" target="s7sYaWTFiz82RCW_50bO-12">
          <mxGeometry width="50" height="50" relative="1" as="geometry">
            <mxPoint x="430.5" y="761.4285714285714" as="sourcePoint" />
            <mxPoint x="429.5" y="220" as="targetPoint" />
          </mxGeometry>
        </mxCell>
        <mxCell id="s7sYaWTFiz82RCW_50bO-12" value="" style="rounded=0;whiteSpace=wrap;html=1;" vertex="1" parent="1">
          <mxGeometry x="425" y="230" width="10" height="460" as="geometry" />
        </mxCell>
        <mxCell id="s7sYaWTFiz82RCW_50bO-13" value="" style="endArrow=classic;html=1;rounded=0;exitX=-0.386;exitY=0.288;exitDx=0;exitDy=0;exitPerimeter=0;entryX=1.257;entryY=0.291;entryDx=0;entryDy=0;entryPerimeter=0;" edge="1" parent="1" source="s7sYaWTFiz82RCW_50bO-12" target="s7sYaWTFiz82RCW_50bO-9">
          <mxGeometry width="50" height="50" relative="1" as="geometry">
            <mxPoint x="430" y="260" as="sourcePoint" />
            <mxPoint x="480" y="210" as="targetPoint" />
          </mxGeometry>
        </mxCell>
        <mxCell id="s7sYaWTFiz82RCW_50bO-14" value="2) Affiche le champ pour la question" style="edgeLabel;html=1;align=center;verticalAlign=middle;resizable=0;points=[];" vertex="1" connectable="0" parent="s7sYaWTFiz82RCW_50bO-13">
          <mxGeometry x="0.1552" y="2" relative="1" as="geometry">
            <mxPoint x="3" y="-15" as="offset" />
          </mxGeometry>
        </mxCell>
        <mxCell id="s7sYaWTFiz82RCW_50bO-15" value="3) Remplit le champ avec la question" style="endArrow=classic;html=1;rounded=0;exitX=1.257;exitY=0.384;exitDx=0;exitDy=0;exitPerimeter=0;" edge="1" parent="1" source="s7sYaWTFiz82RCW_50bO-9">
          <mxGeometry x="-0.051" y="17" width="50" height="50" relative="1" as="geometry">
            <mxPoint x="430" y="450" as="sourcePoint" />
            <mxPoint x="420" y="407" as="targetPoint" />
            <mxPoint as="offset" />
          </mxGeometry>
        </mxCell>
        <mxCell id="s7sYaWTFiz82RCW_50bO-18" value="" style="endArrow=none;dashed=1;html=1;dashPattern=1 3;strokeWidth=2;rounded=0;entryX=0.408;entryY=0.993;entryDx=0;entryDy=0;entryPerimeter=0;" edge="1" parent="1" target="s7sYaWTFiz82RCW_50bO-19">
          <mxGeometry width="50" height="50" relative="1" as="geometry">
            <mxPoint x="690.5" y="761.4285714285714" as="sourcePoint" />
            <mxPoint x="689.5" y="220" as="targetPoint" />
          </mxGeometry>
        </mxCell>
        <mxCell id="s7sYaWTFiz82RCW_50bO-19" value="" style="rounded=0;whiteSpace=wrap;html=1;" vertex="1" parent="1">
          <mxGeometry x="685" y="470" width="10" height="90" as="geometry" />
        </mxCell>
        <mxCell id="s7sYaWTFiz82RCW_50bO-20" value="4) Renseigne la question" style="endArrow=classic;html=1;rounded=0;entryX=0;entryY=0;entryDx=0;entryDy=0;exitX=1.592;exitY=0.522;exitDx=0;exitDy=0;exitPerimeter=0;" edge="1" parent="1" source="s7sYaWTFiz82RCW_50bO-12" target="s7sYaWTFiz82RCW_50bO-19">
          <mxGeometry x="0.0577" y="10" width="50" height="50" relative="1" as="geometry">
            <mxPoint x="440" y="470" as="sourcePoint" />
            <mxPoint x="510" y="420" as="targetPoint" />
            <mxPoint as="offset" />
          </mxGeometry>
        </mxCell>
        <mxCell id="s7sYaWTFiz82RCW_50bO-21" value="5) Confirme l&#39;enregistrement de la question" style="endArrow=classic;html=1;rounded=0;entryX=1.131;entryY=0.713;entryDx=0;entryDy=0;entryPerimeter=0;exitX=0;exitY=1;exitDx=0;exitDy=0;" edge="1" parent="1" source="s7sYaWTFiz82RCW_50bO-19" target="s7sYaWTFiz82RCW_50bO-12">
          <mxGeometry x="-0.0746" y="-9" width="50" height="50" relative="1" as="geometry">
            <mxPoint x="460" y="470" as="sourcePoint" />
            <mxPoint x="510" y="420" as="targetPoint" />
            <mxPoint as="offset" />
          </mxGeometry>
        </mxCell>
        <mxCell id="s7sYaWTFiz82RCW_50bO-22" value="6) Confirme que la question a été posté" style="endArrow=classic;html=1;rounded=0;entryX=1.4;entryY=0.788;entryDx=0;entryDy=0;entryPerimeter=0;" edge="1" parent="1" target="s7sYaWTFiz82RCW_50bO-9">
          <mxGeometry x="0.138" y="-12" width="50" height="50" relative="1" as="geometry">
            <mxPoint x="420" y="592" as="sourcePoint" />
            <mxPoint x="446" y="568" as="targetPoint" />
            <mxPoint as="offset" />
          </mxGeometry>
        </mxCell>
      </root>
    </mxGraphModel>
  </diagram>
</mxfile>
